<?xml version="1.0" encoding="UTF-8"?>
<svg version="1.1" xmlns="http://www.w3.org/2000/svg" width="176" height="119">
<path d="M0 0 C3.3 0 6.6 0 10 0 C12.64 8.25 15.28 16.5 18 25 C20.97 16.75 23.94 8.5 27 0 C29.97 0 32.94 0 36 0 C37.92166116 13.32102979 39.24763768 26.51750396 39 40 C36.36 40 33.72 40 31 40 C30.97494385 39.42032471 30.9498877 38.84064941 30.92407227 38.2434082 C30.80753766 35.59957893 30.68507318 32.95605591 30.5625 30.3125 C30.52318359 29.40048828 30.48386719 28.48847656 30.44335938 27.54882812 C30.40146484 26.66259766 30.35957031 25.77636719 30.31640625 24.86328125 C30.26141968 23.64572144 30.26141968 23.64572144 30.20532227 22.40356445 C30.00651602 19.54749273 30.00651602 19.54749273 29 15 C26.36 23.25 23.72 31.5 21 40 C19.02 40 17.04 40 15 40 C11.35505296 31.52906163 8.66804955 22.81331122 6 14 C5.97494385 14.64549805 5.9498877 15.29099609 5.92407227 15.95605469 C5.80785567 18.88755894 5.68524558 21.81876217 5.5625 24.75 C5.50352539 26.27367187 5.50352539 26.27367187 5.44335938 27.828125 C5.40146484 28.8078125 5.35957031 29.7875 5.31640625 30.796875 C5.26141968 32.14797363 5.26141968 32.14797363 5.20532227 33.52636719 C5.01693593 35.79596339 4.62633499 37.81562887 4 40 C2.02 40 0.04 40 -2 40 C-2.24179823 26.49959855 -1.71470076 13.39609967 0 0 Z " fill="#00758F" transform="translate(7,68)"/>
<path d="M0 0 C4.55608801 5.24640437 5.55458894 10.58384162 5.4375 17.375 C5.44910156 18.04789063 5.46070313 18.72078125 5.47265625 19.4140625 C5.44307486 24.52178239 4.15934753 27.84847199 2.0625 32.375 C2.0625 33.365 2.0625 34.355 2.0625 35.375 C3.3825 36.035 4.7025 36.695 6.0625 37.375 C5.55646008 39.54374252 5.06266187 41.37467627 4.0625 43.375 C0.65937262 42.31624926 -1.95103231 41.36597846 -4.9375 39.375 C-7.93761625 39.03738008 -10.91353823 38.93357496 -13.9296875 38.81640625 C-18.77352395 38.10555752 -21.2417233 36.28337513 -24.1875 32.4375 C-28.12523887 25.54645697 -28.03033087 17.06480562 -26.25390625 9.44140625 C-24.30659834 4.00348831 -22.32764593 0.95777826 -16.9375 -1.625 C-11.29569321 -3.43131652 -5.15399214 -2.85114459 0 0 Z M-17.9375 7.375 C-19.12854332 10.94812995 -19.14278823 13.92053322 -19.1875 17.6875 C-19.21328125 18.98300781 -19.2390625 20.27851562 -19.265625 21.61328125 C-18.91751565 25.6041063 -18.04449629 27.99460061 -15.9375 31.375 C-12.80889505 32.93930248 -10.38147075 32.73127284 -6.9375 32.375 C-2.4238133 28.21765699 -2.07876013 24.49390189 -1.6875 18.625 C-1.75757748 14.01740555 -2.68565452 9.4249609 -4.9375 5.375 C-10.10641203 1.87838304 -13.67478511 3.34270213 -17.9375 7.375 Z " fill="#F29111" transform="translate(130.9375,69.625)"/>
<path d="M0 0 C4.231987 0.06045696 7.6226973 1.51390818 11.4609375 3.1953125 C14.0125001 4.33793052 14.0125001 4.33793052 16.5390625 5.1171875 C25.97278344 8.26176115 33.94827281 15.28917128 38.91015625 23.90625 C39.86265138 25.89518899 40.72344405 27.92775753 41.55859375 29.96875 C44.93367381 38.7433509 44.93367381 38.7433509 52.125 44.375 C53.39150391 44.84679688 53.39150391 44.84679688 54.68359375 45.328125 C58.38831686 46.86111387 60.43622668 49.3406644 63.0625 52.3125 C62.7325 53.3025 62.4025 54.2925 62.0625 55.3125 C58.5 56.5 58.5 56.5 55.0625 57.3125 C55.60519531 57.68761719 56.14789063 58.06273437 56.70703125 58.44921875 C60.76530923 61.35216715 63.88231588 63.67960873 66.0625 68.3125 C62.48209438 66.96503552 59.2315111 65.38167169 55.9375 63.4375 C55.08929688 62.94507813 54.24109375 62.45265625 53.3671875 61.9453125 C50.97868497 60.25311918 49.50865735 58.85574223 48.0625 56.3125 C48.3925 55.3225 48.7225 54.3325 49.0625 53.3125 C52.625 52.125 52.625 52.125 56.0625 51.3125 C55.216875 50.714375 54.37125 50.11625 53.5 49.5 C53.02433594 49.16355469 52.54867187 48.82710937 52.05859375 48.48046875 C49.90287619 47.12776619 49.90287619 47.12776619 46.6015625 46.15234375 C41.98474351 43.75220937 40.97700522 41.32123885 39 36.6875 C38.32568187 35.23638428 37.64730874 33.78714582 36.96484375 32.33984375 C36.64112793 31.64358887 36.31741211 30.94733398 35.98388672 30.22998047 C31.58835061 21.08251343 24.73153716 13.01553551 15.0625 9.3125 C13.969375 9.18875 12.87625 9.065 11.75 8.9375 C6.85906475 8.10852792 3.2488021 5.88503485 -0.9375 3.3125 C-0.55078125 3.91835937 -0.1640625 4.52421875 0.234375 5.1484375 C3.4869494 10.38153987 6.11116992 15.48249731 8.203125 21.28125 C8.98625013 23.4867202 8.98625013 23.4867202 11.0625 25.3125 C10.75 27.8515625 10.75 27.8515625 10.0625 30.9375 C9.00674884 36.48353459 9.22750741 40.0114103 11.0625 45.3125 C12.0525 42.3425 13.0425 39.3725 14.0625 36.3125 C18.218775 37.697925 18.55901418 39.7064658 20.5 43.5625 C22.68766539 47.88888972 24.90693393 51.62291505 28.0625 55.3125 C24.18738273 54.76265228 22.46673494 53.03694669 19.8125 50.25 C18.75289062 49.14978516 18.75289062 49.14978516 17.671875 48.02734375 C17.14078125 47.46144531 16.6096875 46.89554688 16.0625 46.3125 C15.7325 47.3025 15.4025 48.2925 15.0625 49.3125 C13.25 50.25 13.25 50.25 11.0625 50.3125 C7.8279548 48.02929162 6.26745296 45.39263172 5.28515625 41.5625 C4.99135668 38.59357801 5.35489616 35.83757437 5.6875 32.875 C6.29227288 26.65651184 5.3682344 23.46202685 2.0625 18.3125 C1.33960955 16.88226514 0.631055 15.44468814 -0.0625 14 C-1.23913094 11.60297911 -2.44249124 9.55501313 -3.9375 7.3125 C-4.125 4.1875 -4.125 4.1875 -3.9375 1.3125 C-2.9375 0.3125 -2.9375 0.3125 0 0 Z " fill="#00758F" transform="translate(107.9375,2.6875)"/>
<path d="M0 0 C0.76441406 0.07863281 1.52882813 0.15726562 2.31640625 0.23828125 C4.4375 0.6875 4.4375 0.6875 7.4375 2.6875 C7.1075 4.3375 6.7775 5.9875 6.4375 7.6875 C5.66664062 7.59210938 4.89578125 7.49671875 4.1015625 7.3984375 C3.09867188 7.28757812 2.09578125 7.17671875 1.0625 7.0625 C0.06476563 6.94648437 -0.93296875 6.83046875 -1.9609375 6.7109375 C-2.81945312 6.70320313 -3.67796875 6.69546875 -4.5625 6.6875 C-6.83604943 8.49512126 -6.83604943 8.49512126 -6.58984375 11.0546875 C-5.13808065 14.77517545 -2.48276354 15.99535738 0.875 17.8125 C7.20848801 21.34398201 7.20848801 21.34398201 9.4375 24.6875 C10.1195176 28.45654461 10.26848707 32.14378171 8.421875 35.57421875 C6.28107352 38.2373242 4.69691392 39.60102869 1.4375 40.6875 C-4.90374904 41.20515298 -10.05981886 41.25680669 -15.5625 37.6875 C-14.9025 36.0375 -14.2425 34.3875 -13.5625 32.6875 C-13.00046875 32.85121094 -12.4384375 33.01492187 -11.859375 33.18359375 C-9.43190944 33.71614997 -7.29360319 33.78648681 -4.8125 33.75 C-3.61367187 33.73646484 -3.61367187 33.73646484 -2.390625 33.72265625 C-1.78734375 33.71105469 -1.1840625 33.69945312 -0.5625 33.6875 C0.0975 32.0375 0.7575 30.3875 1.4375 28.6875 C-2.07965623 24.90042247 -5.84498975 22.65560292 -10.3203125 20.15234375 C-12.5625 18.6875 -12.5625 18.6875 -14.5625 15.6875 C-15.26638056 11.69433141 -15.75917773 7.40869556 -13.359375 3.95703125 C-9.10358464 0.29232288 -5.42466407 -0.61497884 0 0 Z " fill="#F29111" transform="translate(92.5625,67.3125)"/>
<path d="M0 0 C2.64 0 5.28 0 8 0 C8.84039886 2.58122508 9.67250556 5.16463901 10.5 7.75 C10.73847656 8.47960937 10.97695313 9.20921875 11.22265625 9.9609375 C11.44824219 10.66992188 11.67382812 11.37890625 11.90625 12.109375 C12.11572266 12.75874023 12.32519531 13.40810547 12.54101562 14.07714844 C13 16 13 16 13 20 C13.66 20 14.32 20 15 20 C15.12117188 19.31035156 15.24234375 18.62070313 15.3671875 17.91015625 C16.43859906 11.90200987 17.63482823 5.94824843 19 0 C21.31 0 23.62 0 26 0 C24.61928878 13.21325791 21.29155585 28.20559568 11.25 37.5625 C7.5660372 39.9161429 5.39196357 40.18689207 1 40 C0 39 0 39 -0.0625 36.4375 C-0.041875 35.633125 -0.02125 34.82875 0 34 C0.94875 33.87625 1.8975 33.7525 2.875 33.625 C6.08667191 33.28312823 6.08667191 33.28312823 8 31 C7.01144703 23.21514536 4.46446174 15.86012041 2.03320312 8.42602539 C1.77216797 7.62543701 1.51113281 6.82484863 1.2421875 6 C1.0035498 5.278125 0.76491211 4.55625 0.51904297 3.8125 C0 2 0 2 0 0 Z " fill="#00758F" transform="translate(48,78)"/>
<path d="M0 0 C2.31 0 4.62 0 7 0 C7 11.22 7 22.44 7 34 C10.96 34 14.92 34 19 34 C19 35.98 19 37.96 19 40 C12.73 40 6.46 40 0 40 C0 26.8 0 13.6 0 0 Z " fill="#F29111" transform="translate(141,68)"/>
<path d="M0 0 C3.96 0 7.92 0 12 0 C12 1.98 12 3.96 12 6 C8.7 6 5.4 6 2 6 C2 4.68 2 3.36 2 2 C1.34 2 0.68 2 0 2 C0 1.34 0 0.68 0 0 Z " fill="#F29111" transform="translate(162,102)"/>
<path d="M0 0 C2.475 0.495 2.475 0.495 5 1 C4.67 2.65 4.34 4.3 4 6 C2.62437146 4.71034824 1.29233607 3.37310707 0 2 C0 1.34 0 0.68 0 0 Z " fill="#5D87A1" transform="translate(117,14)"/>
</svg>
