<?xml version="1.0" encoding="UTF-8"?>
<svg version="1.1" xmlns="http://www.w3.org/2000/svg" width="64" height="35">
<path d="M0 0 C3.38899315 3.48058756 4.89985672 6.09297935 5 11 C3.15887429 16.89160229 -0.81531686 20.01461175 -6 23 C-18.06447174 28.23131716 -32.26564837 28.09793964 -44.67578125 24.1484375 C-50.27188123 21.83475583 -55.29114527 18.89762323 -58.4375 13.5625 C-59.31401146 9.56950334 -59.06550587 6.75047394 -56.90625 3.203125 C-50.95950902 -4.52763828 -42.81332487 -6.52734534 -33.46875 -7.75 C-21.89011449 -8.58449625 -9.31261576 -7.53878419 0 0 Z " fill="#7E81B3" transform="translate(59,8)"/>
<path d="M0 0 C1.43655854 -0.08131463 2.8744483 -0.13933559 4.3125 -0.1875 C5.51326172 -0.23970703 5.51326172 -0.23970703 6.73828125 -0.29296875 C9 0 9 0 10.765625 1.359375 C12 3 12 3 12.4375 5.4375 C12 8 12 8 10.4375 10.3125 C7.185351 12.56398777 4.86806995 12.29754384 1 12 C0.67 13.65 0.34 15.3 0 17 C-0.99 17 -1.98 17 -3 17 C-2.54775239 11.08507728 -1.8417395 5.64800112 0 0 Z " fill="#0F0F0F" transform="translate(42,10)"/>
<path d="M0 0 C1.4370809 -0.05422947 2.87475462 -0.09289723 4.3125 -0.125 C5.11300781 -0.14820313 5.91351563 -0.17140625 6.73828125 -0.1953125 C9 0 9 0 12 2 C12.54337501 5.57075009 12.43720456 7.33544906 10.4375 10.375 C7.18317497 12.54455002 4.82869586 12.29451507 1 12 C0.67 13.65 0.34 15.3 0 17 C-0.99 17 -1.98 17 -3 17 C-2.48517081 11.147205 -1.54642808 5.6702363 0 0 Z " fill="#0D0D0D" transform="translate(14,10)"/>
<path d="M0 0 C6.55610817 0.65561082 12.45327142 2.93716448 16.9375 7.875 C19.1376128 11.20850424 20 13.01979078 20 17 C18.15887429 22.89160229 14.18468314 26.01461175 9 29 C-0.8173623 33.25694029 -11.55847612 33.56622858 -22 32 C-22 31.67 -22 31.34 -22 31 C-21.35562988 30.96036133 -20.71125977 30.92072266 -20.04736328 30.87988281 C-17.07185568 30.68702091 -14.0987191 30.46865582 -11.125 30.25 C-10.11179687 30.188125 -9.09859375 30.12625 -8.0546875 30.0625 C-1.063742 29.52473496 4.67429419 28.01716215 11 25 C12.08837158 24.50935059 12.08837158 24.50935059 13.19873047 24.00878906 C15.19392884 23.08729786 15.19392884 23.08729786 16.3125 20.8125 C17.2183567 17.10672258 16.98769347 14.68738897 16 11 C12.08955335 5.52537469 6.03468973 3.48362887 0 1 C0 0.67 0 0.34 0 0 Z " fill="#4C508F" transform="translate(44,2)"/>
<path d="M0 0 C0.99 0 1.98 0 3 0 C3 1.32 3 2.64 3 4 C5.31 4.33 7.62 4.66 10 5 C11.26264601 9.29299643 10.62950412 11.87831311 9 16 C8.01 16 7.02 16 6 16 C6.33 13.03 6.66 10.06 7 7 C5.35 7 3.7 7 2 7 C1.67 9.64 1.34 12.28 1 15 C-0.32 15.33 -1.64 15.66 -3 16 C-2.01 10.72 -1.02 5.44 0 0 Z " fill="#0D0D0D" transform="translate(29,6)"/>
<path d="M0 0 C-0.33 0.66 -0.66 1.32 -1 2 C-3.32169931 2.37313025 -5.65954333 2.6474556 -8 2.875 C-14.32209063 3.58161302 -19.37724305 5.07275126 -25 8 C-26.4540625 8.495 -26.4540625 8.495 -27.9375 9 C-30.48154612 10.23347691 -31.04339834 11.39108639 -32 14 C-32.33 13.01 -32.66 12.02 -33 11 C-23.4192156 2.00163411 -13.06188642 -0.25534515 0 0 Z " fill="#A8ACD0" transform="translate(35,0)"/>
<path d="M0 0 C0.33 0.66 0.66 1.32 1 2 C4.48254713 2.74751373 4.48254713 2.74751373 8 3 C8.33 2.67 8.66 2.34 9 2 C10.68608966 1.92794489 12.37500659 1.91613932 14.0625 1.9375 C14.98160156 1.94652344 15.90070312 1.95554687 16.84765625 1.96484375 C17.55792969 1.97644531 18.26820312 1.98804688 19 2 C19 2.33 19 2.66 19 3 C16.03 3 13.06 3 10 3 C9.01 8.61 8.02 14.22 7 20 C8.32 19.67 9.64 19.34 11 19 C11 19.66 11 20.32 11 21 C9.35 21 7.7 21 6 21 C6 19.35 6 17.7 6 16 C4.68 16 3.36 16 2 16 C2 14.35 2 12.7 2 11 C2.33 12.32 2.66 13.64 3 15 C3.99 15 4.98 15 6 15 C6.33 11.7 6.66 8.4 7 5 C4.69 4.34 2.38 3.68 0 3 C0 2.01 0 1.02 0 0 Z " fill="#B3B4C4" transform="translate(32,7)"/>
<path d="M0 0 C1.2065625 0.0309375 1.2065625 0.0309375 2.4375 0.0625 C3.125 1.875 3.125 1.875 3.4375 4.0625 C2.25 5.8125 2.25 5.8125 0.4375 7.0625 C-0.8825 7.0625 -2.2025 7.0625 -3.5625 7.0625 C-3.60504356 5.06295254 -3.60330783 3.06208364 -3.5625 1.0625 C-2.5625 0.0625 -2.5625 0.0625 0 0 Z " fill="#A7A8B8" transform="translate(19.5625,12.9375)"/>
<path d="M0 0 C1.98 0 3.96 0 6 0 C6 1.98 6 3.96 6 6 C4.02 6.33 2.04 6.66 0 7 C0 4.69 0 2.38 0 0 Z " fill="#9395B6" transform="translate(44,13)"/>
<path d="M0 0 C1.65 0 3.3 0 5 0 C5 1.32 5 2.64 5 4 C3.68 4.33 2.36 4.66 1 5 C0.67 3.35 0.34 1.7 0 0 Z " fill="#7A7EAF" transform="translate(16,14)"/>
</svg>
